HIERARCHY
ROOT Hips
{
    OFFSET 0.000000 0.000000 0.000000
    CHANNELS 6 Xposition Yposition Zposition Zrotation Xrotation Yrotation
    JOINT Spine
    {
        OFFSET 0.000002 7.164412 0.000002
        CHANNELS 3 Zrotation Xrotation Yrotation
        JOINT Spine1
        {
            OFFSET -0.000001 20.126801 -0.000002
            CHANNELS 3 Zrotation Xrotation Yrotation
            JOINT Neck
            {
                OFFSET 0.000000 21.094069 0.000000
                CHANNELS 3 Zrotation Xrotation Yrotation
                JOINT Head
                {
                    OFFSET -0.000001 12.838277 1.776080
                    CHANNELS 3 Zrotation Xrotation Yrotation
                    End Site
                    {
                        OFFSET 0.000000 17.760757 0.000000
                    }
                }
            }
            JOINT LeftShoulder
            {
                OFFSET 3.550527 15.465700 -0.908803
                CHANNELS 3 Zrotation Xrotation Yrotation
                JOINT LeftArm
                {
                    OFFSET 12.513296 -0.000006 -0.000002
                    CHANNELS 3 Zrotation Xrotation Yrotation
                    JOINT LeftForeArm
                    {
                        OFFSET 24.225996 -0.000003 0.000001
                        CHANNELS 3 Zrotation Xrotation Yrotation
                        JOINT LeftHand
                        {
                            OFFSET 20.711399 -0.000005 -0.000004
                            CHANNELS 3 Zrotation Xrotation Yrotation
                            JOINT LeftHandThumb1
                            {
                                OFFSET 2.121969 -2.411331 3.375859
                                CHANNELS 3 Zrotation Xrotation Yrotation
                                JOINT LeftHandThumb2
                                {
                                    OFFSET 2.803208 0.000003 0.000001
                                    CHANNELS 3 Zrotation Xrotation Yrotation
                                    JOINT LeftHandThumb3
                                    {
                                        OFFSET 2.395929 0.000004 -0.000003
                                        CHANNELS 3 Zrotation Xrotation Yrotation
                                        End Site
                                        {
                                            OFFSET 2.127676 0.000000 0.000000
                                        }
                                    }
                                }
                            }
                            JOINT LeftHandIndex1
                            {
                                OFFSET 8.680775 0.000005 3.375860
                                CHANNELS 3 Zrotation Xrotation Yrotation
                                JOINT LeftHandIndex2
                                {
                                    OFFSET 4.218178 -0.000000 -0.000000
                                    CHANNELS 3 Zrotation Xrotation Yrotation
                                    JOINT LeftHandIndex3
                                    {
                                        OFFSET 2.109086 -0.000004 0.000002
                                        CHANNELS 3 Zrotation Xrotation Yrotation
                                        End Site
                                        {
                                            OFFSET 1.872952 0.000000 0.000000
                                        }
                                    }
                                }
                            }
                            JOINT LeftHandMiddle1
                            {
                                OFFSET 8.680778 -0.000002 1.118860
                                CHANNELS 3 Zrotation Xrotation Yrotation
                                JOINT LeftHandMiddle2
                                {
                                    OFFSET 4.640003 -0.000004 -0.000001
                                    CHANNELS 3 Zrotation Xrotation Yrotation
                                    JOINT LeftHandMiddle3
                                    {
                                        OFFSET 2.530911 0.000002 -0.000001
                                        CHANNELS 3 Zrotation Xrotation Yrotation
                                        End Site
                                        {
                                            OFFSET 2.247544 0.000000 0.000000
                                        }
                                    }
                                }
                            }
                            JOINT LeftHandRing1
                            {
                                OFFSET 8.198517 0.000004 -1.118860
                                CHANNELS 3 Zrotation Xrotation Yrotation
                                JOINT LeftHandRing2
                                {
                                    OFFSET 4.218183 -0.000002 -0.000002
                                    CHANNELS 3 Zrotation Xrotation Yrotation
                                    JOINT LeftHandRing3
                                    {
                                        OFFSET 2.109094 0.000005 -0.000000
                                        CHANNELS 3 Zrotation Xrotation Yrotation
                                        End Site
                                        {
                                            OFFSET 1.872952 0.000000 0.000000
                                        }
                                    }
                                }
                            }
                            JOINT LeftHandPinky1
                            {
                                OFFSET 7.716254 0.000002 -3.375863
                                CHANNELS 3 Zrotation Xrotation Yrotation
                                JOINT LeftHandPinky2
                                {
                                    OFFSET 3.374536 0.000002 0.000001
                                    CHANNELS 3 Zrotation Xrotation Yrotation
                                    JOINT LeftHandPinky3
                                    {
                                        OFFSET 1.687274 -0.000002 -0.000004
                                        CHANNELS 3 Zrotation Xrotation Yrotation
                                        End Site
                                        {
                                            OFFSET 1.498360 0.000000 0.000000
                                        }
                                    }
                                }
                            }
                        }
                    }
                }
            }
            JOINT RightShoulder
            {
                OFFSET -3.550529 15.465699 -0.908801
                CHANNELS 3 Zrotation Xrotation Yrotation
                JOINT RightArm
                {
                    OFFSET -12.513299 -0.000001 -0.000000
                    CHANNELS 3 Zrotation Xrotation Yrotation
                    JOINT RightForeArm
                    {
                        OFFSET -24.226000 -0.000003 -0.000001
                        CHANNELS 3 Zrotation Xrotation Yrotation
                        JOINT RightHand
                        {
                            OFFSET -20.711397 -0.000003 -0.000002
                            CHANNELS 3 Zrotation Xrotation Yrotation
                            JOINT RightHandThumb1
                            {
                                OFFSET -2.121970 -2.411331 3.375859
                                CHANNELS 3 Zrotation Xrotation Yrotation
                                JOINT RightHandThumb2
                                {
                                    OFFSET -2.803209 -0.000004 0.000004
                                    CHANNELS 3 Zrotation Xrotation Yrotation
                                    JOINT RightHandThumb3
                                    {
                                        OFFSET -2.395928 0.000004 -0.000003
                                        CHANNELS 3 Zrotation Xrotation Yrotation
                                        End Site
                                        {
                                            OFFSET -2.127676 0.000000 0.000000
                                        }
                                    }
                                }
                            }
                            JOINT RightHandIndex1
                            {
                                OFFSET -8.680779 0.000001 3.375859
                                CHANNELS 3 Zrotation Xrotation Yrotation
                                JOINT RightHandIndex2
                                {
                                    OFFSET -4.218179 0.000003 -0.000001
                                    CHANNELS 3 Zrotation Xrotation Yrotation
                                    JOINT RightHandIndex3
                                    {
                                        OFFSET -2.109090 -0.000002 0.000000
                                        CHANNELS 3 Zrotation Xrotation Yrotation
                                        End Site
                                        {
                                            OFFSET -1.872952 0.000000 0.000000
                                        }
                                    }
                                }
                            }
                            JOINT RightHandMiddle1
                            {
                                OFFSET -8.680779 -0.000002 1.118859
                                CHANNELS 3 Zrotation Xrotation Yrotation
                                JOINT RightHandMiddle2
                                {
                                    OFFSET -4.639998 0.000003 -0.000001
                                    CHANNELS 3 Zrotation Xrotation Yrotation
                                    JOINT RightHandMiddle3
                                    {
                                        OFFSET -2.530910 -0.000000 -0.000000
                                        CHANNELS 3 Zrotation Xrotation Yrotation
                                        End Site
                                        {
                                            OFFSET -2.247544 0.000000 0.000000
                                        }
                                    }
                                }
                            }
                            JOINT RightHandRing1
                            {
                                OFFSET -8.198519 -0.000004 -1.118859
                                CHANNELS 3 Zrotation Xrotation Yrotation
                                JOINT RightHandRing2
                                {
                                    OFFSET -4.218180 -0.000005 0.000000
                                    CHANNELS 3 Zrotation Xrotation Yrotation
                                    JOINT RightHandRing3
                                    {
                                        OFFSET -2.109090 0.000002 0.000002
                                        CHANNELS 3 Zrotation Xrotation Yrotation
                                        End Site
                                        {
                                            OFFSET -1.872952 0.000000 0.000000
                                        }
                                    }
                                }
                            }
                            JOINT RightHandPinky1
                            {
                                OFFSET -7.716249 0.000004 -3.375858
                                CHANNELS 3 Zrotation Xrotation Yrotation
                                JOINT RightHandPinky2
                                {
                                    OFFSET -3.374539 0.000003 -0.000000
                                    CHANNELS 3 Zrotation Xrotation Yrotation
                                    JOINT RightHandPinky3
                                    {
                                        OFFSET -1.687270 -0.000004 -0.000001
                                        CHANNELS 3 Zrotation Xrotation Yrotation
                                        End Site
                                        {
                                            OFFSET -1.498360 0.000000 0.000000
                                        }
                                    }
                                }
                            }
                        }
                    }
                }
            }
        }
    }
    JOINT LeftUpLeg
    {
        OFFSET 8.880377 0.000003 0.000001
        CHANNELS 3 Zrotation Xrotation Yrotation
        JOINT LeftLeg
        {
            OFFSET -0.000000 -40.387413 0.000001
            CHANNELS 3 Zrotation Xrotation Yrotation
            JOINT LeftFoot
            {
                OFFSET -0.000000 -36.911304 0.000000
                CHANNELS 3 Zrotation Xrotation Yrotation
                JOINT LeftToeBase
                {
                    OFFSET 0.000003 -5.772240 13.320597
                    CHANNELS 3 Zrotation Xrotation Yrotation
                    End Site
                    {
                        OFFSET 0.000000 0.000000 3.552151
                    }
                }
            }
        }
    }
    JOINT RightUpLeg
    {
        OFFSET -8.880380 -0.000003 -0.000001
        CHANNELS 3 Zrotation Xrotation Yrotation
        JOINT RightLeg
        {
            OFFSET 0.000001 -40.387405 0.000000
            CHANNELS 3 Zrotation Xrotation Yrotation
            JOINT RightFoot
            {
                OFFSET -0.000001 -36.911304 -0.000001
                CHANNELS 3 Zrotation Xrotation Yrotation
                JOINT RightToeBase
                {
                    OFFSET 0.000000 -5.772241 13.320600
                    CHANNELS 3 Zrotation Xrotation Yrotation
                    End Site
                    {
                        OFFSET 0.000000 0.000000 3.552151
                    }
                }
            }
        }
    }
}
MOTION
Frames: 4
Frame Time: 0.013889
64.477180    82.550621    9.481688    -0.635823    6.120718    -6.259791    0.213121    -21.375099    0.584722    0.031159    13.884855    0.521113    7.300676    4.460370    8.313602    0.789299    1.769258    8.800124    1.460714    1.284009    -1.917086    -17.461870    34.006950    -33.442200    -22.880413    -14.859761    -58.713333    -34.270142    14.126304    8.964540    33.753082    32.126049    -46.218334    -15.859114    -1.701235    23.258791    -0.000000    0.000000    -0.000000    -12.483238    17.600986    -3.892635    -11.890088    0.000000    0.000000    -11.890093    -0.000004    0.000005    -9.480085    8.879062    -2.384865    -9.365446    -0.000000    0.000005    -9.365458    -0.000003    -0.000000    -8.202774    -8.909409    -2.425873    -8.103135    -0.000007    0.000001    -8.103133    0.000010    0.000001    -7.189258    -17.867472    -4.510231    -6.840817    0.000000    0.000000    -6.840817    -0.000003    -0.000005    -0.647417    1.785681    3.616461    55.073349    11.209167    -2.519131    1.610637    -17.205492    5.430128    23.579596    -1.201536    -21.812098    -40.075123    26.256407    48.709412    15.444311    -1.522964    -23.270458    -0.000000    0.000000    -0.000000    18.482548    17.127182    5.832118    17.635319    -0.000000    -0.000002    17.635326    -0.000000    0.000004    15.780125    8.666062    3.288799    15.595373    0.000002    -0.000001    15.595367    -0.000002    0.000001    14.749187    -8.708071    -0.022882    14.575390    0.000002    0.000000    14.575394    -0.000007    -0.000002    14.225334    -17.482122    -0.255717    13.555394    0.000002    0.000004    13.555419    -0.000014    -0.000003    4.811838    -27.049719    26.256100    -0.000001    9.309988    0.000003    -8.251548    16.989056    28.595297    0.000001    1.749425    -0.000005    7.227349    1.636152    -22.078005    -0.000000    7.070901    0.000002    1.407824    -12.792551    -4.135063    0.000000    -2.228441    -0.000007    
64.406593    82.570251    9.340389    -0.589318    6.187971    -6.631129    0.196792    -21.572657    0.535213    -0.002126    13.849446    0.483762    7.115818    4.498811    8.139727    0.821338    1.733072    8.621780    1.252479    1.206498    -1.843239    -18.791706    33.102573    -32.400963    -22.389095    -14.884772    -58.053814    -34.229961    14.653298    9.077369    33.800900    32.086918    -46.222851    -15.951651    -1.740991    23.256008    -0.000000    0.000000    -0.000000    -12.593177    17.593933    -3.866511    -11.995125    -0.000007    0.000004    -11.995112    0.000004    -0.000003    -9.495642    8.878655    -2.386014    -9.380818    0.000007    -0.000001    -9.380826    -0.000004    0.000001    -8.172963    -8.910077    -2.427995    -8.073675    0.000008    -0.000011    -8.073676    -0.000003    -0.000000    -7.111265    -17.870329    -4.499782    -6.766532    0.000000    0.000000    -6.766533    0.000000    0.000000    -0.657257    1.725912    3.538075    54.679585    11.183268    -2.296222    1.639464    -17.189985    5.531602    23.398018    -0.930451    -21.929789    -40.036041    26.309013    48.658180    15.473624    -1.535579    -23.269669    -0.000000    0.000000    -0.000000    18.369162    17.137817    5.749489    17.526449    -0.000000    0.000001    17.526443    -0.000001    -0.000002    15.703528    8.669281    3.242328    15.519565    -0.000002    0.000001    15.519569    0.000003    -0.000003    14.689292    -8.710424    -0.025184    14.516136    -0.000004    -0.000003    14.516131    0.000007    -0.000000    14.180679    -17.485365    -0.255600    13.512690    0.000002    -0.000001    13.512682    0.000004    0.000002    5.076110    -27.078207    26.448986    -0.000001    9.180724    -0.000000    -8.582035    17.354290    28.594687    0.000000    1.756005    -0.000004    7.370912    1.858341    -21.591143    -0.000001    6.253792    0.000006    1.513107    -12.458415    -4.174934    -0.000000    -2.094089    0.000006    
64.312691    82.577911    9.147681    -0.527388    6.289257    -7.138700    0.181193    -21.809046    0.487705    -0.020004    13.795547    0.444506    6.878249    4.472463    7.954814    0.842428    1.614158    8.422311    1.037006    1.138773    -1.741114    -20.590023    31.854073    -31.044811    -21.970413    -15.042681    -57.245342    -34.221207    14.798621    9.404978    33.853531    32.055927    -46.148087    -16.077812    -1.795183    23.252121    -0.000000    0.000000    -0.000000    -12.599081    17.593563    -3.913257    -12.000755    -0.000001    0.000007    -12.000759    -0.000003    -0.000002    -9.480010    8.879064    -2.412696    -9.365376    -0.000007    0.000003    -9.365372    0.000000    -0.000002    -8.146659    -8.910653    -2.432565    -8.047684    0.000020    0.000012    -8.047688    -0.000007    0.000001    -7.072907    -17.871717    -4.505283    -6.729992    0.000004    -0.000002    -6.729989    -0.000000    0.000005    -0.623313    1.660983    3.472309    54.115387    11.151292    -1.950528    1.677106    -17.126492    5.678035    22.926224    -0.607081    -22.301556    -39.923885    26.453178    48.526855    15.540999    -1.564538    -23.267855    -0.000000    0.000000    -0.000000    18.212315    17.152422    5.625158    17.375841    0.000001    0.000001    17.375834    -0.000003    -0.000002    15.598424    8.673671    3.172888    15.415570    -0.000000    -0.000001    15.415556    -0.000001    0.000001    14.607735    -8.713622    -0.032929    14.435430    0.000000    0.000001    14.435421    -0.000005    0.000004    14.120667    -17.489691    -0.264400    13.455307    -0.000004    -0.000004    13.455293    -0.000002    0.000001    5.434975    -27.146067    26.770510    -0.000001    9.081183    -0.000001    -8.911782    17.663956    28.531786    -0.000002    1.722808    0.000002    7.533195    2.061845    -21.059101    0.000000    5.343536    -0.000003    1.653364    -12.113435    -4.136998    0.000001    -1.940708    -0.000001    
64.245728    82.578056    9.007247    -0.482124    6.360787    -7.516976    0.168746    -21.976349    0.450915    -0.037394    13.763637    0.415041    6.716455    4.444030    7.803943    0.864551    1.506574    8.260605    0.871932    1.062688    -1.648905    -21.941950    30.837055    -30.038244    -21.625309    -15.158216    -56.591763    -34.100826    14.780589    9.543819    33.816338    32.097740    -46.068096    -16.214323    -1.853804    23.247765    -0.000000    0.000000    -0.000000    -12.519683    17.598656    -3.965055    -11.924918    -0.000004    0.000005    -11.924904    0.000004    -0.000003    -9.379378    8.881613    -2.442121    -9.265921    -0.000006    -0.000006    -9.265912    0.000004    -0.000005    -8.034063    -8.913101    -2.462016    -7.936426    0.000000    0.000000    -7.936422    0.000006    0.000006    -6.943691    -17.876364    -4.559424    -6.606932    -0.000007    0.000001    -6.606922    0.000007    -0.000001    -0.578112    1.629053    3.404535    53.670383    11.118463    -1.671762    1.741782    -17.093212    5.906691    22.517515    -0.326967    -22.521196    -39.833164    26.569935    48.417683    15.591224    -1.586117    -23.266466    -0.000000    0.000000    -0.000000    18.074835    17.165127    5.554141    17.243860    0.000000    -0.000000    17.243877    0.000001    0.000001    15.512656    8.677231    3.130035    15.330701    0.000000    -0.000000    15.330685    -0.000002    -0.000001    14.545749    -8.716032    -0.031231    14.374114    -0.000002    0.000000    14.374114    -0.000000    -0.000001    14.081193    -17.492540    -0.254087    13.417530    -0.000001    0.000002    13.417538    0.000001    -0.000003    5.719860    -27.228226    27.043381    0.000000    9.110591    -0.000001    -9.118040    17.837128    28.448898    0.000002    1.673342    -0.000008    7.614764    2.116575    -20.768572    0.000002    4.878871    -0.000007    1.749928    -11.894177    -4.019554    -0.000000    -1.854852    0.000000    
